<mxfile host="app.diagrams.net" modified="2020-08-15T07:54:16.689Z" agent="5.0 (Macintosh; Intel Mac OS X 10_15_6) AppleWebKit/537.36 (KHTML, like Gecko) Chrome/84.0.4147.125 Safari/537.36" etag="ENtoG2xBiDQVLxMXI4UQ" version="13.6.2" type="github">
  <diagram id="AQWJKWnMYgotVxzfW0Ci" name="Page-1">
    <mxGraphModel dx="983" dy="531" grid="1" gridSize="10" guides="1" tooltips="1" connect="1" arrows="1" fold="1" page="1" pageScale="1" pageWidth="850" pageHeight="1100" math="0" shadow="0">
      <root>
        <mxCell id="0" />
        <mxCell id="1" parent="0" />
        <mxCell id="z9h_JMUYrPbDvNMQzw3J-34" value="" style="rounded=0;whiteSpace=wrap;html=1;" vertex="1" parent="1">
          <mxGeometry x="10" y="50" width="830" height="140" as="geometry" />
        </mxCell>
        <mxCell id="z9h_JMUYrPbDvNMQzw3J-18" value="" style="rounded=0;whiteSpace=wrap;html=1;" vertex="1" parent="1">
          <mxGeometry x="270" y="210" width="300" height="130" as="geometry" />
        </mxCell>
        <mxCell id="z9h_JMUYrPbDvNMQzw3J-28" value="" style="rounded=0;whiteSpace=wrap;html=1;" vertex="1" parent="1">
          <mxGeometry x="373.75" y="200" width="90.5" height="100" as="geometry" />
        </mxCell>
        <mxCell id="z9h_JMUYrPbDvNMQzw3J-23" value="" style="rounded=0;whiteSpace=wrap;html=1;" vertex="1" parent="1">
          <mxGeometry x="420" y="110" width="410" height="70" as="geometry" />
        </mxCell>
        <mxCell id="z9h_JMUYrPbDvNMQzw3J-21" value="" style="rounded=0;whiteSpace=wrap;html=1;" vertex="1" parent="1">
          <mxGeometry x="30" y="110" width="380" height="70" as="geometry" />
        </mxCell>
        <mxCell id="z9h_JMUYrPbDvNMQzw3J-2" value="1" style="whiteSpace=wrap;html=1;aspect=fixed;" vertex="1" parent="1">
          <mxGeometry x="41" y="120" width="40" height="40" as="geometry" />
        </mxCell>
        <mxCell id="z9h_JMUYrPbDvNMQzw3J-3" value="2" style="whiteSpace=wrap;html=1;aspect=fixed;" vertex="1" parent="1">
          <mxGeometry x="101" y="120" width="40" height="40" as="geometry" />
        </mxCell>
        <mxCell id="z9h_JMUYrPbDvNMQzw3J-4" value="3" style="whiteSpace=wrap;html=1;aspect=fixed;" vertex="1" parent="1">
          <mxGeometry x="161" y="120" width="40" height="40" as="geometry" />
        </mxCell>
        <mxCell id="z9h_JMUYrPbDvNMQzw3J-5" value="4" style="whiteSpace=wrap;html=1;aspect=fixed;" vertex="1" parent="1">
          <mxGeometry x="221" y="120" width="40" height="40" as="geometry" />
        </mxCell>
        <mxCell id="z9h_JMUYrPbDvNMQzw3J-6" value="5" style="whiteSpace=wrap;html=1;aspect=fixed;" vertex="1" parent="1">
          <mxGeometry x="279" y="120" width="40" height="40" as="geometry" />
        </mxCell>
        <mxCell id="z9h_JMUYrPbDvNMQzw3J-25" style="edgeStyle=orthogonalEdgeStyle;rounded=0;orthogonalLoop=1;jettySize=auto;html=1;exitX=0.5;exitY=0;exitDx=0;exitDy=0;entryX=0.5;entryY=1;entryDx=0;entryDy=0;" edge="1" parent="1" source="z9h_JMUYrPbDvNMQzw3J-8" target="z9h_JMUYrPbDvNMQzw3J-6">
          <mxGeometry relative="1" as="geometry" />
        </mxCell>
        <mxCell id="z9h_JMUYrPbDvNMQzw3J-8" value="5" style="whiteSpace=wrap;html=1;aspect=fixed;" vertex="1" parent="1">
          <mxGeometry x="279" y="220" width="40" height="40" as="geometry" />
        </mxCell>
        <mxCell id="z9h_JMUYrPbDvNMQzw3J-9" value="6" style="whiteSpace=wrap;html=1;aspect=fixed;" vertex="1" parent="1">
          <mxGeometry x="339" y="220" width="40" height="40" as="geometry" />
        </mxCell>
        <mxCell id="z9h_JMUYrPbDvNMQzw3J-10" value="7" style="whiteSpace=wrap;html=1;aspect=fixed;" vertex="1" parent="1">
          <mxGeometry x="399" y="220" width="40" height="40" as="geometry" />
        </mxCell>
        <mxCell id="z9h_JMUYrPbDvNMQzw3J-11" value="8" style="whiteSpace=wrap;html=1;aspect=fixed;" vertex="1" parent="1">
          <mxGeometry x="459" y="220" width="40" height="40" as="geometry" />
        </mxCell>
        <mxCell id="z9h_JMUYrPbDvNMQzw3J-26" style="edgeStyle=orthogonalEdgeStyle;rounded=0;orthogonalLoop=1;jettySize=auto;html=1;exitX=0.5;exitY=0;exitDx=0;exitDy=0;entryX=0.5;entryY=1;entryDx=0;entryDy=0;" edge="1" parent="1" source="z9h_JMUYrPbDvNMQzw3J-12" target="z9h_JMUYrPbDvNMQzw3J-17">
          <mxGeometry relative="1" as="geometry" />
        </mxCell>
        <mxCell id="z9h_JMUYrPbDvNMQzw3J-12" value="9" style="whiteSpace=wrap;html=1;aspect=fixed;" vertex="1" parent="1">
          <mxGeometry x="517" y="220" width="40" height="40" as="geometry" />
        </mxCell>
        <mxCell id="z9h_JMUYrPbDvNMQzw3J-13" value="10" style="whiteSpace=wrap;html=1;aspect=fixed;" vertex="1" parent="1">
          <mxGeometry x="577" y="120" width="40" height="40" as="geometry" />
        </mxCell>
        <mxCell id="z9h_JMUYrPbDvNMQzw3J-14" value="11" style="whiteSpace=wrap;html=1;aspect=fixed;" vertex="1" parent="1">
          <mxGeometry x="637" y="120" width="40" height="40" as="geometry" />
        </mxCell>
        <mxCell id="z9h_JMUYrPbDvNMQzw3J-15" value="12" style="whiteSpace=wrap;html=1;aspect=fixed;" vertex="1" parent="1">
          <mxGeometry x="697" y="120" width="40" height="40" as="geometry" />
        </mxCell>
        <mxCell id="z9h_JMUYrPbDvNMQzw3J-16" value="13" style="whiteSpace=wrap;html=1;aspect=fixed;" vertex="1" parent="1">
          <mxGeometry x="757" y="120" width="40" height="40" as="geometry" />
        </mxCell>
        <mxCell id="z9h_JMUYrPbDvNMQzw3J-17" value="9" style="whiteSpace=wrap;html=1;aspect=fixed;" vertex="1" parent="1">
          <mxGeometry x="517" y="120" width="40" height="40" as="geometry" />
        </mxCell>
        <mxCell id="z9h_JMUYrPbDvNMQzw3J-20" value="Active carousel" style="text;html=1;strokeColor=none;fillColor=none;align=center;verticalAlign=middle;whiteSpace=wrap;rounded=0;" vertex="1" parent="1">
          <mxGeometry x="324" y="300" width="190" height="40" as="geometry" />
        </mxCell>
        <mxCell id="z9h_JMUYrPbDvNMQzw3J-22" value="Prv Inactive&amp;nbsp;" style="text;html=1;strokeColor=none;fillColor=none;align=center;verticalAlign=middle;whiteSpace=wrap;rounded=0;" vertex="1" parent="1">
          <mxGeometry x="320" y="120" width="90" height="40" as="geometry" />
        </mxCell>
        <mxCell id="z9h_JMUYrPbDvNMQzw3J-24" value="Next Inactive&amp;nbsp;" style="text;html=1;strokeColor=none;fillColor=none;align=center;verticalAlign=middle;whiteSpace=wrap;rounded=0;" vertex="1" parent="1">
          <mxGeometry x="429" y="120" width="90" height="40" as="geometry" />
        </mxCell>
        <mxCell id="z9h_JMUYrPbDvNMQzw3J-32" value="Active Section" style="text;html=1;strokeColor=none;fillColor=none;align=center;verticalAlign=middle;whiteSpace=wrap;rounded=0;" vertex="1" parent="1">
          <mxGeometry x="399" y="270" width="40" height="20" as="geometry" />
        </mxCell>
        <mxCell id="z9h_JMUYrPbDvNMQzw3J-35" value="Invisible Carousel" style="text;html=1;strokeColor=none;fillColor=none;align=center;verticalAlign=middle;whiteSpace=wrap;rounded=0;" vertex="1" parent="1">
          <mxGeometry x="30" y="70" width="150" height="20" as="geometry" />
        </mxCell>
      </root>
    </mxGraphModel>
  </diagram>
</mxfile>
